:SAMPLES-PER-SECOND 30
:FULLY-SPECIFIED
:DEGREES
347
root  68.2991 39.3502 -30.6417 0.141388 -13.0441 4.04694
RightUpLeg  -24.5501 -31.4009 -6.10366
RightLeg  29.8651 -10.9763 -6.96774
RightFoot  -5.75519 0.00553129 -0.922444
RightToes  0.00048216 0.542163 -0.142577
Spine  43.8629 1.05456 -0.724341
Spine1  9.18072 1.78108 -2.787
HEad  -32.5156 -19.6516 16.3174
LeftShoulder1  9.69481 -20.5675 -34.1536
LeftArm  -32.8137 -27.0147 -27.5854
LeftForeArm  5.73179 -57.6377 -17.5347
LeftHand  -0.25398 0.0180481 5.50724
RightShoulder  4.48814 11.7307 23.2483
RightArm  -5.63829 50.2592 43.3235
RightForeArm  -36.0719 45.9641 13.6002
RightHand  -0.00807092 -5.57812 -12.585
LeftUpLeg  -13.7833 19.0476 -0.393858
LeftLeg  11.88 27.1555 -3.4107
LeftFoot  1.57441 -0.529129 4.58875
LeftToes  1.06244e-005 4.65854e-005 -8.18505e-006
348
root  67.9105 39.3943 -30.535 -0.126801 -14.1356 4.57442
RightUpLeg  -24.0691 -34.1356 -6.39389
RightLeg  28.8026 -13.1622 -7.93557
RightFoot  -6.29613 0.0308034 -1.65813
RightToes  0.00048216 0.542163 -0.142577
Spine  42.4461 1.26619 -1.04885
Spine1  9.34076 1.78179 -2.4138
HEad  -32.6194 -20.1604 16.4853
LeftShoulder1  9.76379 -20.3894 -34.7372
LeftArm  -32.8243 -25.2567 -27.5232
LeftForeArm  6.10671 -58.632 -18.2607
LeftHand  -0.25398 0.0180481 5.50724
RightShoulder  4.39404 11.6025 22.8545
RightArm  -3.64154 50.2261 44.7417
RightForeArm  -36.347 45.2474 13.2963
RightHand  0.00049614 -5.67415 -12.1851
LeftUpLeg  -12.6432 16.7512 0.598161
LeftLeg  10.9925 30.4577 -3.84994
LeftFoot  2.01893 -0.471998 3.92457
LeftToes  1.06244e-005 4.65854e-005 -8.18505e-006
349
root  67.4697 39.4447 -30.4381 -0.481903 -15.2722 5.10529
RightUpLeg  -23.2291 -37.4905 -6.16719
RightLeg  26.549 -15.1023 -8.27288
RightFoot  -5.92166 0.0444406 -1.78975
RightToes  0.00048216 0.542163 -0.142577
Spine  41.372 1.17477 -1.06776
Spine1  9.2903 1.70577 -2.57437
HEad  -32.3107 -20.6621 16.9707
LeftShoulder1  9.68963 -20.1418 -34.8542
LeftArm  -32.7455 -23.2427 -27.6332
LeftForeArm  6.37262 -59.6001 -19.0247
LeftHand  -0.25398 0.0180481 5.50724
RightShoulder  4.2994 11.503 22.3914
RightArm  -1.43567 50.1348 46.7335
RightForeArm  -36.7913 44.4581 12.9768
RightHand  0.000963499 -5.67579 -12.2946
LeftUpLeg  -11.3077 14.961 1.49325
LeftLeg  9.71806 32.9621 -4.53119
LeftFoot  2.62579 -0.400129 3.13764
LeftToes  1.06244e-005 4.65854e-005 -8.18505e-006
350
root  66.9459 39.4824 -30.3545 -0.935165 -16.4501 5.59364
RightUpLeg  -22.1747 -40.2039 -5.66185
RightLeg  23.982 -15.5331 -7.63922
RightFoot  -4.66754 0.0735 -1.79758
RightToes  0.00048216 0.542163 -0.142577
Spine  40.5243 1.10739 -0.916852
Spine1  9.15912 1.68893 -2.66873
HEad  -31.8857 -21.5742 17.5324
LeftShoulder1  9.72423 -19.9426 -35.344
LeftArm  -32.4126 -21.3272 -27.3681
LeftForeArm  6.2468 -60.2436 -19.5932
LeftHand  -0.25398 0.0180481 5.50724
RightShoulder  4.20394 11.392 21.9378
RightArm  0.840758 50.1689 48.6385
RightForeArm  -37.4401 43.7647 12.7134
RightHand  -0.00263569 -5.628 -12.7282
LeftUpLeg  -9.98113 13.9368 2.30908
LeftLeg  8.61758 34.9166 -4.96809
LeftFoot  3.31211 -0.299582 2.17411
LeftToes  1.06244e-005 4.65854e-005 -8.18505e-006
351
root  66.3268 39.5041 -30.286 -1.30899 -17.6934 5.92822
RightUpLeg  -21.4509 -40.8647 -5.05907
RightLeg  22.7953 -14.6959 -6.8805
RightFoot  -3.75145 0.117999 -2.16033
RightToes  0.00048216 0.542163 -0.142577
Spine  39.721 1.12963 -0.513606
Spine1  9.11065 1.82343 -2.60979
HEad  -31.7234 -22.744 17.9627
LeftShoulder1  9.89854 -19.8849 -36.1736
LeftArm  -31.9217 -19.757 -26.7621
LeftForeArm  5.509 -60.3255 -19.7435
LeftHand  -0.25398 0.0180481 5.50724
RightShoulder  4.12288 11.2204 21.7035
RightArm  3.05135 50.4172 49.9613
RightForeArm  -38.1346 43.2726 12.5392
RightHand  -0.0162649 -5.48782 -13.2854
LeftUpLeg  -9.01694 13.8612 3.17809
LeftLeg  8.27581 36.3492 -4.72287
LeftFoot  4.0896 -0.232928 1.53476
LeftToes  1.06244e-005 4.65854e-005 -8.18505e-006
352
root  65.6364 39.4924 -30.2306 -1.48308 -19.1489 5.90503
RightUpLeg  -21.3114 -39.366 -4.14491
RightLeg  23.4536 -14.0835 -6.81019
RightFoot  -4.20069 0.157693 -2.9964
RightToes  0.00048216 0.542163 -0.142577
Spine  38.8673 1.00471 0.39661
Spine1  9.16498 2.08183 -2.89268
HEad  -31.6676 -23.75 18.2163
LeftShoulder1  9.99597 -19.8271 -36.6834
LeftArm  -31.4557 -18.4058 -26.235
LeftForeArm  4.27851 -60.0125 -19.5913
LeftHand  -0.25398 0.0180481 5.50724
RightShoulder  4.09903 11.0932 21.7894
RightArm  5.30275 50.9239 51.0436
RightForeArm  -38.7679 42.7119 12.3392
RightHand  -0.0162214 -5.48004 -13.734
LeftUpLeg  -8.63048 16.5166 4.21951
LeftLeg  9.32241 34.8213 -3.60132
LeftFoot  4.59035 -0.152361 0.887712
LeftToes  1.06244e-005 4.65854e-005 -8.18505e-006
353
root  64.9006 39.423 -30.1915 -1.57767 -20.8739 5.4075
RightUpLeg  -21.2378 -37.1708 -2.7108
RightLeg  24.6673 -14.2009 -7.22946
RightFoot  -5.63128 0.165436 -4.08141
RightToes  0.00048216 0.542163 -0.142577
Spine  38.069 0.702694 1.61066
Spine1  9.27071 2.2837 -3.32903
HEad  -31.2992 -24.3704 18.2203
LeftShoulder1  9.9378 -19.5266 -36.9858
LeftArm  -31.13 -17.0202 -25.6792
LeftForeArm  3.06723 -59.8115 -19.5362
LeftHand  -0.25398 0.0180481 5.50724
RightShoulder  4.13791 11.1848 21.8844
RightArm  7.96193 51.7415 52.6851
RightForeArm  -39.3037 41.6728 11.958
RightHand  0.00867616 -5.69675 -13.8443
LeftUpLeg  -9.17654 24.8487 4.96969
LeftLeg  12.1482 27.1676 -1.08689
LeftFoot  4.52097 0.101544 -0.930936
LeftToes  1.06244e-005 4.65854e-005 -8.18505e-006
354
root  64.1283 39.3073 -30.1832 -1.82222 -22.6639 4.64049
RightUpLeg  -20.6739 -35.4478 -1.04482
RightLeg  25.4653 -14.4257 -7.58521
RightFoot  -7.08971 0.145543 -5.20199
RightToes  0.00048216 0.542163 -0.142577
Spine  37.5725 0.390588 2.5888
Spine1  9.35287 2.22979 -3.2839
HEad  -30.565 -24.5896 18.127
LeftShoulder1  9.82169 -18.978 -37.5128
LeftArm  -30.9658 -15.4662 -24.6889
LeftForeArm  2.32135 -60.0573 -19.8272
LeftHand  -0.25398 0.0180481 5.50724
RightShoulder  4.20235 11.5049 21.701
RightArm  11.1805 52.754 55.1749
RightForeArm  -39.6088 40.2057 11.4269
RightHand  0.0110676 -5.72154 -13.6912
LeftUpLeg  -11.0258 35.7383 4.99951
LeftLeg  16.038 17.371 3.12867
LeftFoot  4.76594 0.416986 -3.12806
LeftToes  1.06244e-005 4.65854e-005 -8.18505e-006
355
root  63.3328 39.1733 -30.2095 -2.35034 -24.2999 4.07021
RightUpLeg  -19.7729 -34.3536 0.322568
RightLeg  26.2164 -14.2107 -7.7147
RightFoot  -8.49454 0.100631 -6.36096
RightToes  0.00048216 0.542163 -0.142577
Spine  37.411 0.133936 3.15274
Spine1  9.35781 1.97786 -2.88806
HEad  -29.8353 -24.5283 18.3788
LeftShoulder1  9.71929 -18.4886 -38.0059
LeftArm  -30.8533 -13.9165 -23.3926
LeftForeArm  1.82337 -60.4541 -20.2326
LeftHand  -0.25398 0.0180481 5.50724
RightShoulder  4.24055 11.8255 21.3402
RightArm  14.4397 53.6623 57.9222
RightForeArm  -39.5023 38.8293 10.9395
RightHand  -0.0400609 -5.27086 -13.56
LeftUpLeg  -13.1563 36.4403 6.0534
LeftLeg  21.1026 17.745 8.08452
LeftFoot  6.6465 0.368717 -2.65116
LeftToes  1.06244e-005 4.65854e-005 -8.18505e-006
356
root  62.5487 39.0467 -30.2407 -3.13312 -25.8156 3.99518
RightUpLeg  -18.8415 -33.5811 1.08904
RightLeg  27.3109 -13.6791 -7.78066
RightFoot  -10.1952 0.00509821 -7.35298
RightToes  0.00048216 0.542163 -0.142577
Spine  37.3833 -0.0969608 3.60258
Spine1  9.39448 1.82969 -2.87481
HEad  -29.4584 -24.4613 19.1355
LeftShoulder1  9.65492 -18.2997 -38.0932
LeftArm  -30.5761 -12.8607 -22.3908
LeftForeArm  0.84064 -60.3392 -20.2271
LeftHand  -0.25398 0.0180481 5.50724
RightShoulder  4.21744 11.9133 21.0114
RightArm  16.9933 54.3205 60.0961
RightForeArm  -39.1255 37.9019 10.6141
RightHand  -0.100747 -4.73096 -13.5814
LeftUpLeg  -14.8922 29.0632 8.00974
LeftLeg  27.72 22.5969 12.6354
LeftFoot  9.72993 -0.271549 1.12696
LeftToes  1.06244e-005 4.65854e-005 -8.18505e-006
357
root  61.8132 38.9271 -30.2174 -3.91791 -27.3739 4.09254
RightUpLeg  -17.858 -32.923 1.53275
RightLeg  28.4172 -13.0872 -7.79726
RightFoot  -12.039 -0.128067 -7.81022
RightToes  0.00048216 0.542163 -0.142577
Spine  37.2576 -0.321935 4.40744
Spine1  9.62043 1.96638 -3.32634
HEad  -29.4611 -24.6035 19.9581
LeftShoulder1  9.67304 -18.3236 -38.1262
LeftArm  -30.0389 -12.616 -22.0531
LeftForeArm  -0.824364 -59.5072 -19.6524
LeftHand  -0.25398 0.0180481 5.50724
RightShoulder  4.14525 11.7779 20.7666
RightArm  18.6768 54.8688 61.3329
RightForeArm  -38.9732 37.283 10.4057
RightHand  -0.147325 -4.33472 -13.8209
LeftUpLeg  -17.4291 22.4985 8.52238
LeftLeg  34.2806 20.4348 14.6023
LeftFoot  11.0955 -0.887068 4.16191
LeftToes  1.06244e-005 4.65854e-005 -8.18505e-006
